<?xml version="1.0" encoding="UTF-8" standalone="no"?> <svg width="64" height="64" viewBox="0 0 64 64" fill="none" xmlns="http://www.w3.org/2000/svg">
<path d="M50.18 3.68011H16.43C15.8501 3.67483 15.275 3.78448 14.7377 4.00273C14.2005 4.22098 13.7118 4.54351 13.2999 4.95169C12.888 5.35986 12.5611 5.8456 12.338 6.38084C12.1148 6.91609 12 7.49023 12 8.07011V56.1801C12 57.3444 12.4625 58.461 13.2858 59.2843C14.1091 60.1076 15.2257 60.5701 16.39 60.5701H50.18C51.3435 60.5675 52.4586 60.1041 53.2813 59.2814C54.104 58.4587 54.5674 57.3436 54.57 56.1801V8.07011C54.5674 6.90663 54.104 5.79155 53.2813 4.96883C52.4586 4.14612 51.3435 3.68276 50.18 3.68011V3.68011ZM35 45.4601C28.55 45.4601 23.33 42.2601 23.33 38.3101C23.33 34.6801 27.76 31.6801 33.49 31.2301C32.076 30.865 30.8437 29.9968 30.0241 28.7881C29.2045 27.5794 28.8538 26.1133 29.0378 24.6646C29.2218 23.2159 29.9279 21.884 31.0237 20.9186C32.1194 19.9532 33.5296 19.4206 34.99 19.4206C36.4504 19.4206 37.8606 19.9532 38.9563 20.9186C40.0521 21.884 40.7582 23.2159 40.9422 24.6646C41.1262 26.1133 40.7755 27.5794 39.9559 28.7881C39.1363 29.9968 37.904 30.865 36.49 31.2301C42.22 31.6801 46.65 34.6801 46.65 38.3101C46.64 42.2601 41.41 45.4601 35 45.4601Z" fill="#78B9EB"/>
<path d="M51.5 2.75H15.5C14.3736 2.75264 13.2942 3.20126 12.4977 3.99771C11.7013 4.79417 11.2526 5.87364 11.25 7V10.75H9.5C9.16848 10.75 8.85054 10.8817 8.61612 11.1161C8.3817 11.3505 8.25 11.6685 8.25 12C8.25 12.3315 8.3817 12.6495 8.61612 12.8839C8.85054 13.1183 9.16848 13.25 9.5 13.25H11.25V20.75H9.5C9.16848 20.75 8.85054 20.8817 8.61612 21.1161C8.3817 21.3505 8.25 21.6685 8.25 22C8.25 22.3315 8.3817 22.6495 8.61612 22.8839C8.85054 23.1183 9.16848 23.25 9.5 23.25H11.25V30.75H9.5C9.16848 30.75 8.85054 30.8817 8.61612 31.1161C8.3817 31.3505 8.25 31.6685 8.25 32C8.25 32.3315 8.3817 32.6495 8.61612 32.8839C8.85054 33.1183 9.16848 33.25 9.5 33.25H11.25V40.75H9.5C9.16848 40.75 8.85054 40.8817 8.61612 41.1161C8.3817 41.3505 8.25 41.6685 8.25 42C8.25 42.3315 8.3817 42.6495 8.61612 42.8839C8.85054 43.1183 9.16848 43.25 9.5 43.25H11.25V50.75H9.5C9.16848 50.75 8.85054 50.8817 8.61612 51.1161C8.3817 51.3505 8.25 51.6685 8.25 52C8.25 52.3315 8.3817 52.6495 8.61612 52.8839C8.85054 53.1183 9.16848 53.25 9.5 53.25H11.25V57C11.2526 58.1264 11.7013 59.2058 12.4977 60.0023C13.2942 60.7987 14.3736 61.2474 15.5 61.25H51.5C52.6264 61.2474 53.7058 60.7987 54.5023 60.0023C55.2987 59.2058 55.7474 58.1264 55.75 57V7C55.7474 5.87364 55.2987 4.79417 54.5023 3.99771C53.7058 3.20126 52.6264 2.75264 51.5 2.75V2.75ZM53.25 57C53.2474 57.4633 53.0622 57.9069 52.7345 58.2345C52.4069 58.5622 51.9633 58.7474 51.5 58.75H15.5C15.0367 58.7474 14.5931 58.5622 14.2655 58.2345C13.9378 57.9069 13.7526 57.4633 13.75 57V53.25H15.5C15.8315 53.25 16.1495 53.1183 16.3839 52.8839C16.6183 52.6495 16.75 52.3315 16.75 52C16.75 51.6685 16.6183 51.3505 16.3839 51.1161C16.1495 50.8817 15.8315 50.75 15.5 50.75H13.75V43.25H15.5C15.8315 43.25 16.1495 43.1183 16.3839 42.8839C16.6183 42.6495 16.75 42.3315 16.75 42C16.75 41.6685 16.6183 41.3505 16.3839 41.1161C16.1495 40.8817 15.8315 40.75 15.5 40.75H13.75V33.25H15.5C15.8315 33.25 16.1495 33.1183 16.3839 32.8839C16.6183 32.6495 16.75 32.3315 16.75 32C16.75 31.6685 16.6183 31.3505 16.3839 31.1161C16.1495 30.8817 15.8315 30.75 15.5 30.75H13.75V23.25H15.5C15.8315 23.25 16.1495 23.1183 16.3839 22.8839C16.6183 22.6495 16.75 22.3315 16.75 22C16.75 21.6685 16.6183 21.3505 16.3839 21.1161C16.1495 20.8817 15.8315 20.75 15.5 20.75H13.75V13.25H15.5C15.8315 13.25 16.1495 13.1183 16.3839 12.8839C16.6183 12.6495 16.75 12.3315 16.75 12C16.75 11.6685 16.6183 11.3505 16.3839 11.1161C16.1495 10.8817 15.8315 10.75 15.5 10.75H13.75V7C13.7526 6.53668 13.9378 6.09309 14.2655 5.76546C14.5931 5.43784 15.0367 5.25263 15.5 5.25H51.5C51.9633 5.25263 52.4069 5.43784 52.7345 5.76546C53.0622 6.09309 53.2474 6.53668 53.25 7V57Z" fill="#006DF0"/>
<path d="M39.5101 30.0001C40.5479 29.075 41.28 27.8563 41.6096 26.5057C41.9391 25.155 41.8505 23.7361 41.3555 22.437C40.8605 21.1378 39.9824 20.0197 38.8376 19.2308C37.6928 18.442 36.3354 18.0195 34.9451 18.0195C33.5548 18.0195 32.1974 18.442 31.0526 19.2308C29.9078 20.0197 29.0297 21.1378 28.5347 22.437C28.0397 23.7361 27.9511 25.155 28.2806 26.5057C28.6102 27.8563 29.3423 29.075 30.3801 30.0001C27.2504 31.062 24.5904 33.1844 22.8601 36.0001C22.254 37.0116 22.0354 38.2088 22.2451 39.3692C22.4547 40.5297 23.0783 41.5746 24.0001 42.3101C27.1389 44.7089 30.9796 46.0085 34.9301 46.0085C38.8806 46.0085 42.7213 44.7089 45.8601 42.3101C46.8009 41.5749 47.4375 40.5184 47.6478 39.343C47.8582 38.1677 47.6275 36.956 47.0001 35.9401C45.2706 33.1489 42.6219 31.0483 39.5101 30.0001V30.0001ZM30.5901 24.9101C30.5881 24.0469 30.8424 23.2026 31.3207 22.4841C31.7991 21.7655 32.4799 21.2052 33.277 20.8739C34.0741 20.5427 34.9516 20.4555 35.7982 20.6234C36.6449 20.7913 37.4227 21.2068 38.0331 21.8171C38.6434 22.4275 39.0589 23.2053 39.2268 24.052C39.3947 24.8987 39.3075 25.7761 38.9763 26.5732C38.6451 27.3703 38.0847 28.0512 37.3662 28.5295C36.6476 29.0078 35.8033 29.2621 34.9401 29.2601C34.365 29.2588 33.7958 29.1438 33.2654 28.9216C32.7349 28.6994 32.2537 28.3744 31.8494 27.9654C31.445 27.5565 31.1256 27.0715 30.9095 26.5386C30.6934 26.0056 30.5848 25.4352 30.5901 24.8601V24.9101ZM44.3601 40.3201C41.6547 42.3825 38.347 43.4995 34.9451 43.4995C31.5433 43.4995 28.2355 42.3825 25.5301 40.3201C25.0792 39.9658 24.7755 39.457 24.6776 38.8919C24.5797 38.3268 24.6946 37.7455 25.0001 37.2601C26.0483 35.5626 27.5133 34.1613 29.2556 33.1894C30.998 32.2175 32.96 31.7073 34.9551 31.7073C36.9502 31.7073 38.9122 32.2175 40.6546 33.1894C42.397 34.1613 43.8619 35.5626 44.9101 37.2601C45.2112 37.7484 45.3216 38.3306 45.2201 38.8953C45.1186 39.4599 44.8124 39.9672 44.3601 40.3201V40.3201Z" fill="#006DF0"/>
</svg>
